<?xml version="1.0" encoding="UTF-8"?>
<svg version="1.1" xmlns="http://www.w3.org/2000/svg" width="1099" height="362">
<path d="M0 0 C362.67 0 725.34 0 1099 0 C1099 119.46 1099 238.92 1099 362 C736.33 362 373.66 362 0 362 C0 242.54 0 123.08 0 0 Z " fill="#FEFEFE" transform="translate(0,0)"/>
<path d="M0 0 C0.99384705 -0.0071553 1.98769409 -0.01431061 3.01165771 -0.02168274 C4.10104141 -0.02437164 5.19042511 -0.02706055 6.31282043 -0.02983093 C7.46108307 -0.03640213 8.6093457 -0.04297333 9.79240417 -0.04974365 C13.60104942 -0.06949064 17.4096552 -0.08114277 21.21833801 -0.09111023 C22.51847651 -0.09518576 23.818615 -0.09926128 25.15815163 -0.10346031 C31.33045683 -0.12217533 37.50274224 -0.13673914 43.67506999 -0.14507228 C50.78841427 -0.15483549 57.90144661 -0.18113197 65.01468104 -0.22157317 C70.51970685 -0.25179145 76.02464355 -0.26654665 81.52975065 -0.26985329 C84.81429702 -0.27219786 88.09843497 -0.28306956 91.38290977 -0.30631447 C95.05250709 -0.33066944 98.72129198 -0.32974682 102.39094543 -0.32279968 C103.47020798 -0.33560974 104.54947052 -0.3484198 105.66143799 -0.36161804 C113.25455356 -0.3093085 118.55231306 0.97226289 124.41755676 6.11201477 C124.95638489 6.76299133 125.49521301 7.4139679 126.05036926 8.08467102 C126.60466614 8.73306946 127.15896301 9.3814679 127.73005676 10.04951477 C131.62591792 15.70377813 131.42260573 20.80718657 131.30036926 27.45967102 C131.29134583 28.39101868 131.28232239 29.32236633 131.27302551 30.28193665 C131.24955189 32.57061462 131.21671655 34.85875774 131.17536926 37.14717102 C131.74457092 37.13146057 132.31377258 37.11575012 132.90022278 37.0995636 C135.51266801 37.03668663 138.12495336 36.9980157 140.73786926 36.95967102 C141.63312317 36.9345343 142.52837708 36.90939758 143.45075989 36.88349915 C150.59001372 36.80504581 155.42368112 37.70817471 160.92536926 42.58467102 C161.66786926 43.43029602 162.41036926 44.27592102 163.17536926 45.14717102 C163.73224426 45.76592102 164.28911926 46.38467102 164.86286926 47.02217102 C168.46039568 52.84673761 168.43920432 58.95796696 168.30036926 65.58467102 C168.29134583 66.41160461 168.28232239 67.23853821 168.27302551 68.0905304 C168.24968438 70.1095381 168.21382215 72.12839458 168.17536926 74.14717102 C169.11219543 74.10003967 169.11219543 74.10003967 170.06794739 74.05195618 C172.93670965 73.92614258 175.80489038 73.8488632 178.67536926 73.77217102 C179.65763489 73.72189758 180.63990051 73.67162415 181.65193176 73.61982727 C188.03595055 73.49214689 191.66558077 74.37110548 196.54890442 78.56098938 C197.08563782 79.08442932 197.62237122 79.60786926 198.17536926 80.14717102 C198.67729797 80.63387268 199.17922668 81.12057434 199.69636536 81.62202454 C205.88269626 88.30473431 205.45999153 96.12413059 205.40242004 104.68208313 C205.4027121 105.82427307 205.40300415 106.96646301 205.40330505 108.14326477 C205.40191611 111.90375977 205.38637512 115.66405455 205.37068176 119.42451477 C205.36695009 122.03767794 205.36410385 124.6508425 205.36210632 127.26400757 C205.35590442 133.42972861 205.33951118 139.59537825 205.31940734 145.76106793 C205.29700806 152.78406116 205.28604481 159.80705791 205.27601647 166.83007801 C205.25514372 181.26914575 205.21999297 195.70815738 205.17536926 210.14717102 C204.51536926 210.14717102 203.85536926 210.14717102 203.17536926 210.14717102 C203.11349426 210.82779602 203.05161926 211.50842102 202.98786926 212.20967102 C201.6746226 216.95756281 199.35874654 220.72989103 195.17146301 223.44795227 C190.60897418 225.758605 186.59078968 227.26719509 181.43339539 227.30107117 C180.45782181 227.30967163 179.48224823 227.31827209 178.47711182 227.32713318 C177.40800064 227.33139313 176.33888947 227.33565308 175.23738098 227.34004211 C173.54665718 227.35230835 173.54665718 227.35230835 171.82177734 227.36482239 C168.0828759 227.38968141 164.34401248 227.40619511 160.60505676 227.42060852 C159.32823154 227.4259322 158.05140633 227.43125587 156.73588943 227.43674088 C151.36745426 227.45797266 145.99903238 227.47710136 140.63056755 227.48836327 C132.95234127 227.50457921 125.27462288 227.53770034 117.59658802 227.59476411 C111.53695608 227.63825363 105.4775221 227.65412056 99.41774368 227.66049576 C96.84618137 227.66720656 94.27462639 227.68242396 91.70316696 227.70638657 C88.09829604 227.73805856 84.49469868 227.73807067 80.88972473 227.73066711 C79.83275894 227.74707245 78.77579315 227.76347778 77.6867981 227.78038025 C69.7375596 227.71375446 63.85978209 225.66873687 58.05427551 220.11982727 C57.61986145 219.48947571 57.18544739 218.85912415 56.73786926 218.20967102 C56.28540833 217.58189758 55.83294739 216.95412415 55.36677551 216.30732727 C52.14387916 210.46384633 51.91555988 205.27413105 52.05036926 198.77217102 C52.0593927 197.94072571 52.06841614 197.1092804 52.07771301 196.25263977 C52.10110706 194.21735765 52.13697201 192.18222538 52.17536926 190.14717102 C51.61140442 190.16811829 51.04743958 190.18906555 50.46638489 190.21064758 C47.86956677 190.29465603 45.27303564 190.34609331 42.67536926 190.39717102 C41.78849426 190.43068665 40.90161926 190.46420227 39.98786926 190.49873352 C33.8190787 190.58945103 29.2965729 189.69817979 24.17536926 186.14717102 C22.15193176 184.18232727 22.15193176 184.18232727 20.80036926 182.20967102 C20.33888489 181.56127258 19.87740051 180.91287415 19.40193176 180.24482727 C17.02496974 176.17976802 15.92215566 172.78407956 15.98005676 168.06513977 C15.98650208 167.13379211 15.99294739 166.20244446 15.99958801 165.24287415 C16.01634583 164.28316711 16.03310364 163.32346008 16.05036926 162.33467102 C16.0593927 161.35562805 16.06841614 160.37658508 16.07771301 159.36787415 C16.10119744 156.96072041 16.13404086 154.55407359 16.17536926 152.14717102 C15.329422 152.17073669 15.329422 152.17073669 14.46638489 152.19477844 C11.86948492 152.25778676 9.27274652 152.296367 6.67536926 152.33467102 C5.78849426 152.35980774 4.90161926 152.38494446 3.98786926 152.4108429 C-2.80168053 152.48572764 -8.66498278 151.78021099 -14.07463074 147.27217102 C-14.65213074 146.57092102 -15.22963074 145.86967102 -15.82463074 145.14717102 C-16.54650574 144.44592102 -17.26838074 143.74467102 -18.01213074 143.02217102 C-22.2426398 136.31170837 -20.98512958 126.40987487 -21.01750183 118.68989563 C-21.02567932 117.59098495 -21.03385681 116.49207428 -21.0422821 115.35986328 C-21.06691238 111.75641908 -21.08358739 108.15301344 -21.09806824 104.54951477 C-21.10339191 103.31220675 -21.10871559 102.07489872 -21.11420059 100.80009651 C-21.13809239 94.93162818 -21.15735304 89.06317551 -21.17022264 83.19467252 C-21.1853106 76.45205036 -21.22048883 69.70990987 -21.27222383 62.96747202 C-21.31570419 57.09845283 -21.33157766 51.22959491 -21.33795547 45.36042976 C-21.34465981 42.87538984 -21.35986034 40.39035732 -21.38384628 37.90542412 C-21.41551742 34.42822898 -21.41553183 30.95235379 -21.40812683 27.47505188 C-21.42453217 26.45713562 -21.4409375 25.43921936 -21.45783997 24.39045715 C-21.38972083 16.55259219 -19.26596886 10.62632605 -13.69181824 4.99092102 C-13.03439636 4.54748352 -12.37697449 4.10404602 -11.69963074 3.64717102 C-11.03705261 3.18310852 -10.37447449 2.71904602 -9.69181824 2.24092102 C-6.41338237 0.32049834 -3.71477586 0.01836556 0 0 Z " fill="#696969" transform="translate(98.82463073730469,58.85282897949219)"/>
<path d="M0 0 C75.02277904 0 75.02277904 0 87 11 C89.3125 13.375 89.3125 13.375 91 16 C91.36996094 16.54140625 91.73992187 17.0828125 92.12109375 17.640625 C96.55123823 25.42786858 96.0832686 35.33971731 95 44 C92.99811546 51.27233279 88.51351463 56.0744194 83 61 C81.99427604 61.99424309 80.99245315 62.99250968 80 64 C81.2375 64.2784375 81.2375 64.2784375 82.5 64.5625 C90.36162581 67.79138203 94.6114213 73.17205193 98.08984375 80.765625 C101.59179612 89.36269263 101.19576295 101.32578629 98 110 C92.77773279 121.03537487 86.19118407 127.87290959 74.72558594 132.12402344 C67.17182469 134.57143635 59.79206827 134.50768475 51.953125 134.390625 C50.61507843 134.38472514 49.27702254 134.380656 47.93896484 134.37841797 C43.0425001 134.35766311 38.14623452 134.30181928 33.25 134.25 C16.79125 134.12625 16.79125 134.12625 0 134 C0 89.78 0 45.56 0 0 Z " fill="#242424" transform="translate(903,105)"/>
<path d="M0 0 C74.70588235 0 74.70588235 0 90.90625 14.75390625 C97.94660428 22.30652512 99.26575192 31.73342015 99.3125 41.6875 C99.32059692 42.7379248 99.32059692 42.7379248 99.32885742 43.80957031 C99.18079054 54.76394479 95.49735086 64.73094267 87.8125 72.625 C84.32411067 76 84.32411067 76 82 76 C82 76.66 82 77.32 82 78 C68.56339171 83.85622087 56.72327922 85.4248013 42.25 85.1875 C36.8875 85.125625 31.525 85.06375 26 85 C26 101.83 26 118.66 26 136 C17.42 136 8.84 136 0 136 C0 91.12 0 46.24 0 0 Z " fill="#272727" transform="translate(381,104)"/>
<path d="M0 0 C8.91 0 17.82 0 27 0 C29.40718007 5.41615515 31.6395033 10.52222841 33.5859375 16.0625 C33.81020416 16.69752441 34.03447083 17.33254883 34.26553345 17.98681641 C34.97212003 19.99002294 35.67369178 21.99494032 36.375 24 C36.83559935 25.30871281 37.29653542 26.61730716 37.7578125 27.92578125 C38.69848737 30.59600054 39.6373924 33.26683175 40.57470703 35.93823242 C45.70240288 50.55227475 50.90260826 65.13963627 56.13085938 79.71801758 C57.36656641 83.16398159 58.60129387 86.61029549 59.8359375 90.05664062 C60.23975647 91.18296906 60.64357544 92.30929749 61.05963135 93.46975708 C61.86376588 95.71275747 62.66728139 97.9559799 63.47015381 100.19943237 C65.41407348 105.62207424 67.37741525 111.03616108 69.38378906 116.43603516 C69.75790924 117.447491 70.13202942 118.45894684 70.51748657 119.50105286 C71.22122712 121.39967446 71.93021575 123.29636212 72.64535522 125.1907196 C72.95655304 126.03181778 73.26775085 126.87291595 73.58837891 127.73950195 C73.86227448 128.46957962 74.13617004 129.19965729 74.41836548 129.95185852 C75 132 75 132 75 136 C66.42 136 57.84 136 49 136 C44.05 120.655 44.05 120.655 39 105 C22.17 104.67 5.34 104.34 -12 104 C-12.66 107.63 -13.32 111.26 -14 115 C-14.52151187 116.9049385 -15.08418596 118.80031844 -15.7265625 120.66796875 C-16.00580566 121.49321045 -16.28504883 122.31845215 -16.57275391 123.16870117 C-16.91999512 124.16490479 -17.26723633 125.1611084 -17.625 126.1875 C-18.73875 129.425625 -19.8525 132.66375 -21 136 C-29.91 136 -38.82 136 -48 136 C-47.18499727 130.29498088 -46.56409383 127.55962025 -44.125 122.6875 C-41.86189972 117.98306003 -40.04965479 113.46329669 -38.73828125 108.4140625 C-37.95841105 105.86401072 -36.91052993 103.49138632 -35.84057617 101.05224609 C-34.16122471 96.95215071 -32.8645822 92.71292408 -31.5 88.5 C-29.56593313 82.52888525 -27.47391447 76.77246709 -25 71 C-23.77521141 67.51887234 -22.63710041 64.01061132 -21.5 60.5 C-19.56593313 54.52888525 -17.47391447 48.77246709 -15 43 C-13.77521141 39.51887234 -12.63710041 36.01061132 -11.5 32.5 C-9.56663209 26.53104316 -7.49971394 20.76079627 -5 15 C-4.04940165 12.37148656 -3.17612842 9.72066552 -2.3125 7.0625 C-1.549375 4.731875 -0.78625 2.40125 0 0 Z " fill="#262626" transform="translate(814,104)"/>
<path d="M0 0 C7.00344301 5.45672926 15.25762146 12.45835547 18.34765625 21.09375 C17.97265625 23.84375 17.97265625 23.84375 17.34765625 26.09375 C14.60101921 26.96031998 11.85123195 27.81226786 9.09765625 28.65625 C8.32035156 28.90310547 7.54304687 29.14996094 6.7421875 29.40429688 C5.98808594 29.63310547 5.23398437 29.86191406 4.45703125 30.09765625 C3.76577148 30.31236572 3.07451172 30.5270752 2.36230469 30.74829102 C0.01278718 31.1511712 -1.42408855 30.9142213 -3.65234375 30.09375 C-5.328125 28.203125 -5.328125 28.203125 -6.96484375 25.84375 C-11.18835673 20.15512117 -15.79899754 16.30108654 -22.65234375 14.09375 C-31.0475063 13.33296604 -39.64058463 12.7694002 -46.65234375 18.09375 C-47.2865625 18.56425781 -47.92078125 19.03476563 -48.57421875 19.51953125 C-57.41142835 26.58564719 -60.92365584 37.27144555 -62.1953125 48.23046875 C-63.38739668 59.50906362 -64.02454177 72.16782842 -60.65234375 83.09375 C-60.39582031 83.97933594 -60.13929688 84.86492187 -59.875 85.77734375 C-56.79940251 95.29453599 -51.89878309 104.16976925 -42.87109375 109.1015625 C-34.14551265 111.79124405 -23.12119694 111.48129128 -14.65234375 108.09375 C-14.65234375 107.43375 -14.65234375 106.77375 -14.65234375 106.09375 C-13.48604923 105.02514005 -12.26728443 104.0134502 -11.02734375 103.03125 C-7.07494607 99.73874297 -4.73837304 96.35423417 -2.3671875 91.81640625 C-0.65234375 90.09375 -0.65234375 90.09375 2.50390625 89.68359375 C6.85896079 90.14830994 10.6536754 91.19517002 14.78515625 92.59375 C15.51669922 92.83222656 16.24824219 93.07070312 17.00195312 93.31640625 C18.78686785 93.89971172 20.56771182 94.49544935 22.34765625 95.09375 C21.47265625 100.84375 21.47265625 100.84375 20.34765625 103.09375 C19.68765625 103.09375 19.02765625 103.09375 18.34765625 103.09375 C18.09113281 103.81820312 17.83460938 104.54265625 17.5703125 105.2890625 C13.97922007 113.52677612 6.88990644 120.36810776 -0.65234375 125.09375 C-1.31234375 125.09375 -1.97234375 125.09375 -2.65234375 125.09375 C-2.65234375 125.75375 -2.65234375 126.41375 -2.65234375 127.09375 C-16.64410958 133.11325489 -29.56980946 135.00441451 -44.65234375 132.09375 C-44.65234375 131.43375 -44.65234375 130.77375 -44.65234375 130.09375 C-45.93109375 130.0525 -47.20984375 130.01125 -48.52734375 129.96875 C-59.95201346 128.66153858 -69.56950534 119.17479723 -76.48657227 110.60180664 C-90.74328659 91.87419533 -92.66640802 67.25120884 -89.96484375 44.59375 C-86.9958582 27.15095988 -78.08730648 11.71548022 -63.953125 1.05859375 C-45.08939715 -11.61589386 -18.98125763 -13.64190533 0 0 Z " fill="#272727" transform="translate(635.65234375,109.90625)"/>
<path d="M0 0 C11.22 0 22.44 0 34 0 C34.09047028 12.24828412 34.16381384 24.49634529 34.20724869 36.74488831 C34.22809819 42.43275393 34.25636804 48.12037854 34.30175781 53.80810547 C34.34530904 59.29999146 34.36915694 64.79164602 34.37950897 70.28369141 C34.38688365 72.3760136 34.40128468 74.46832354 34.42292023 76.56054688 C34.45207715 79.49767143 34.45595082 82.4338471 34.45410156 85.37109375 C34.46848267 86.2306517 34.48286377 87.09020966 34.49768066 87.97581482 C34.4583205 93.77635745 33.2510077 98.14806959 30 103 C27.5625 105.3125 27.5625 105.3125 25 107 C24.31561356 107.5227803 23.63122711 108.04556061 22.92610168 108.58418274 C18.78784426 110.58651106 15.15902241 110.39623013 10.61987305 110.34057617 C9.68280014 110.34101425 8.74572723 110.34145233 7.78025818 110.34190369 C4.69053128 110.33981778 1.60135057 110.31649577 -1.48828125 110.29296875 C-3.63347578 110.2873721 -5.77867416 110.28310233 -7.9238739 110.28010559 C-13.5644493 110.26866231 -19.20479221 110.23919936 -24.84527588 110.20599365 C-30.6031988 110.17528176 -36.36115937 110.16159785 -42.11914062 110.14648438 C-53.41287889 110.11432931 -64.70638372 110.06156538 -76 110 C-76 98.45 -76 86.9 -76 75 C-71.70097656 74.98582031 -67.40195313 74.97164063 -62.97265625 74.95703125 C-59.52416812 74.93175035 -56.0758017 74.90151726 -52.627388 74.86795807 C-48.99849707 74.83399063 -45.3700248 74.80855607 -41.7409668 74.80444336 C-38.23923331 74.80013476 -34.7384375 74.77146437 -31.2369976 74.72656822 C-29.26478407 74.70743985 -27.29238072 74.71292565 -25.32008362 74.71894836 C-17.9297028 74.60001372 -11.62183176 74.20811907 -6 69 C-0.32845884 61.80758055 -0.26497421 53.93657738 -0.29296875 45.1171875 C-0.27028679 43.17406174 -0.27028679 43.17406174 -0.24714661 41.19168091 C-0.20761853 37.782075 -0.19712736 34.37300371 -0.19311523 30.9631958 C-0.18372216 27.47009641 -0.14653743 23.97729383 -0.11132812 20.484375 C-0.04450095 13.65585307 -0.02337366 6.82935941 0 0 Z " fill="#FBFBFB" transform="translate(230,136)"/>
<path d="M0 0 C0.93751099 -0.00073013 1.87502197 -0.00146027 2.84094238 -0.00221252 C5.91474918 0.0012484 8.98700748 0.04003892 12.06054688 0.0793457 C14.20144829 0.08867914 16.34236043 0.09579274 18.48327637 0.1007843 C24.09934326 0.11981216 29.71475653 0.16887714 35.33056641 0.2243042 C41.06859497 0.27558737 46.80672985 0.29831772 52.54492188 0.32348633 C63.79004591 0.37699979 75.0345146 0.46490168 86.27929688 0.56762695 C86.27929688 11.78762695 86.27929688 23.00762695 86.27929688 34.56762695 C82.11304688 34.5934082 77.94679688 34.61918945 73.65429688 34.64575195 C70.31498313 34.67746707 66.97576261 34.71311939 63.63652039 34.75141907 C60.12110496 34.79066629 56.60593911 34.82310863 53.09033203 34.83862305 C49.0487513 34.8567804 45.00809164 34.90677648 40.96679688 34.95825195 C39.09290283 34.96009491 39.09290283 34.96009491 37.18115234 34.9619751 C29.17397911 35.0957103 23.49504304 35.92971472 17.25585938 41.3137207 C16.80984375 41.87188477 16.36382812 42.43004883 15.90429688 43.00512695 C15.4428125 43.56071289 14.98132813 44.11629883 14.50585938 44.6887207 C11.76924445 48.88079643 11.02422941 52.58704471 10.96044922 57.55126953 C10.94057953 58.73211624 10.92070984 59.91296295 10.90023804 61.1295929 C10.88291122 63.02671272 10.88291122 63.02671272 10.86523438 64.9621582 C10.84586823 66.26465012 10.82650208 67.56714203 10.80654907 68.90910339 C10.75535169 72.35970045 10.71566012 75.81033639 10.67840576 79.2611084 C10.638288 82.78720583 10.5873364 86.31314579 10.53710938 89.83911133 C10.43947813 96.7485559 10.35986468 103.65787798 10.27929688 110.56762695 C-0.61070312 110.56762695 -11.50070313 110.56762695 -22.72070312 110.56762695 C-22.83378278 98.05858159 -22.9254652 85.54987715 -22.97976398 73.04043579 C-23.00582816 67.23143483 -23.04116895 61.4228025 -23.09790039 55.61401367 C-23.15233234 50.00540558 -23.18214758 44.39715147 -23.19508934 38.78829956 C-23.20430905 36.65130035 -23.22231319 34.51431994 -23.24935341 32.37747192 C-23.28579167 29.37793515 -23.29064221 26.37985038 -23.28833008 23.38012695 C-23.31529465 22.06273781 -23.31529465 22.06273781 -23.34280396 20.71873474 C-23.2913046 14.52104237 -21.90426887 10.22447056 -17.72070312 5.56762695 C-12.23928393 0.65338061 -7.16571148 -0.14824751 0 0 Z " fill="#FDFDFD" transform="translate(140.720703125,98.432373046875)"/>
<path d="M0 0 C8.58 0 17.16 0 26 0 C26 37.62 26 75.24 26 114 C45.8 114 65.6 114 86 114 C86 121.26 86 128.52 86 136 C57.62 136 29.24 136 0 136 C0 91.12 0 46.24 0 0 Z " fill="#2A2A2A" transform="translate(675,104)"/>
<path d="M0 0 C8.25 0 16.5 0 25 0 C25 44.88 25 89.76 25 136 C16.75 136 8.5 136 0 136 C0 91.12 0 46.24 0 0 Z " fill="#262626" transform="translate(500,104)"/>
<path d="M0 0 C4.74375 -0.061875 9.4875 -0.12375 14.375 -0.1875 C16.58775635 -0.22846802 16.58775635 -0.22846802 18.84521484 -0.27026367 C26.4204064 -0.3178324 32.92363133 0.19370834 40 3 C40 3.66 40 4.32 40 5 C40.5775 5.226875 41.155 5.45375 41.75 5.6875 C45.14222063 7.66629537 47.25493471 10.50986942 49 14 C49.90818858 22.19964547 49.24909995 29.38104255 44 36 C37.48113007 41.11607514 31.07966995 42.13225391 22.94921875 42.09765625 C21.14070435 42.09390991 21.14070435 42.09390991 19.2956543 42.09008789 C17.01461792 42.07643188 17.01461792 42.07643188 14.6875 42.0625 C7.4171875 42.0315625 7.4171875 42.0315625 0 42 C0 28.14 0 14.28 0 0 Z " fill="#F6F6F6" transform="translate(406,125)"/>
<path d="M0 0 C8.6934375 -0.12375 8.6934375 -0.12375 17.5625 -0.25 C19.3782251 -0.28641602 21.1939502 -0.32283203 23.06469727 -0.36035156 C24.52358828 -0.37204735 25.98249247 -0.38223706 27.44140625 -0.390625 C28.55364563 -0.4213208 28.55364563 -0.4213208 29.68835449 -0.45263672 C35.89534169 -0.45674663 40.12686446 1.30724069 44.7421875 5.6328125 C49.46879664 11.85889765 49.55742247 16.25689514 49 24 C46.9435322 30.06116826 43.44290066 32.76865443 37.83569336 35.5949707 C33.88605986 37.2435666 30.11429167 37.38605683 25.87890625 37.29296875 C25.2175769 37.28994751 24.55624756 37.28692627 23.87487793 37.28381348 C21.43725668 37.26828188 18.99986034 37.22639954 16.5625 37.1875 C11.096875 37.125625 5.63125 37.06375 0 37 C0 24.79 0 12.58 0 0 Z " fill="#FCFCFC" transform="translate(928,181)"/>
<path d="M0 0 C8.0128125 -0.061875 8.0128125 -0.061875 16.1875 -0.125 C17.86481201 -0.14320801 19.54212402 -0.16141602 21.27026367 -0.18017578 C22.61116212 -0.18602123 23.95206413 -0.19111667 25.29296875 -0.1953125 C26.32339294 -0.2106604 26.32339294 -0.2106604 27.37463379 -0.22631836 C32.21894849 -0.22806753 35.79397359 0.48784307 39.80078125 3.234375 C43.76943352 7.21328219 44.4653416 10.46262951 44.625 16.0625 C44.389155 21.59896138 43.9495711 25.0504289 40 29 C39.34 29 38.68 29 38 29 C38 29.66 38 30.32 38 31 C30.23335677 33.54217446 22.60335805 33.22380011 14.5 33.125 C9.715 33.08375 4.93 33.0425 0 33 C0 22.11 0 11.22 0 0 Z " fill="#FCFCFC" transform="translate(928,126)"/>
<path d="M0 0 C3.51518347 3.16143153 4.33700337 6.74830087 5.5625 11.1875 C6.07426087 12.97339241 6.58879456 14.75849161 7.10546875 16.54296875 C7.39599121 17.54763184 7.68651367 18.55229492 7.98583984 19.58740234 C9.1505569 23.50661637 10.37528251 27.40422351 11.61328125 31.30078125 C11.84030228 32.01711227 12.0673233 32.7334433 12.30122375 33.47148132 C13.22009104 36.36911947 14.13964058 39.26649197 15.06838989 42.16098022 C15.72518482 44.20990091 16.37489868 46.26095369 17.0234375 48.3125 C17.40419434 49.50488281 17.78495117 50.69726562 18.17724609 51.92578125 C19 55 19 55 19 59 C6.79 59 -5.42 59 -18 59 C-16.04779788 51.84192557 -14.02469289 44.87142902 -11.625 37.875 C-8.50308723 28.64718748 -5.69007687 19.36107337 -3 10 C-2.0087556 6.6640048 -1.00676844 3.33133946 0 0 Z " fill="#F5F5F5" transform="translate(827,129)"/>
<path d="M0 0 C0.66 0.33 1.32 0.66 2 1 C-0.28356246 3.34138543 -2.57813374 5.67166982 -4.875 8 C-5.85146484 9.00160156 -5.85146484 9.00160156 -6.84765625 10.0234375 C-7.47285156 10.65507813 -8.09804688 11.28671875 -8.7421875 11.9375 C-9.3182373 12.52402344 -9.89428711 13.11054687 -10.48779297 13.71484375 C-12 15 -12 15 -14 15 C-12.55053895 11.66026243 -10.71827612 9.47695341 -8.125 6.9375 C-7.44695313 6.26589844 -6.76890625 5.59429687 -6.0703125 4.90234375 C-4.1292063 3.11872353 -2.1380399 1.53881347 0 0 Z " fill="#4A4A4A" transform="translate(573,110)"/>
<path d="M0 0 C2.96527758 2.4453385 3.55582214 4.44602347 4.1875 8.1875 C4.34605469 9.08855469 4.50460937 9.98960937 4.66796875 10.91796875 C4.83232422 11.94857422 4.83232422 11.94857422 5 13 C4.34 12.67 3.68 12.34 3 12 C2.59270772 9.67843403 2.25561323 7.3431213 2 5 C0.02 5.99 0.02 5.99 -2 7 C-1.34 4.69 -0.68 2.38 0 0 Z " fill="#CBCBCB" transform="translate(827,129)"/>
<path d="M0 0 C0.66 0.33 1.32 0.66 2 1 C0.54782324 2.50596108 -0.91192861 4.00462104 -2.375 5.5 C-3.18710937 6.3353125 -3.99921875 7.170625 -4.8359375 8.03125 C-7 10 -7 10 -9 10 C-7.61811547 6.78956118 -6.07578097 4.95063635 -3.375 2.75 C-2.74335937 2.22921875 -2.11171875 1.7084375 -1.4609375 1.171875 C-0.73777344 0.59179688 -0.73777344 0.59179688 0 0 Z " fill="#C4C4C4" transform="translate(590,126)"/>
<path d="M0 0 C2.64 0 5.28 0 8 0 C7.67 1.32 7.34 2.64 7 4 C5.35 4 3.7 4 2 4 C2 3.01 2 2.02 2 1 C1.34 0.67 0.68 0.34 0 0 Z " fill="#EBEBEB" transform="translate(747,240)"/>
<path d="M0 0 C0.66 0.33 1.32 0.66 2 1 C-0.64 3.64 -3.28 6.28 -6 9 C-6.33 8.34 -6.66 7.68 -7 7 C-4.78071806 4.09197539 -3.07030857 2.04687238 0 0 Z " fill="#DCDCDC" transform="translate(127,101)"/>
<path d="M0 0 C0.66 0.33 1.32 0.66 2 1 C-0.64 3.64 -3.28 6.28 -6 9 C-6.33 8.34 -6.66 7.68 -7 7 C-4.78071806 4.09197539 -3.07030857 2.04687238 0 0 Z " fill="#838383" transform="translate(88,62)"/>
<path d="M0 0 C0 0.99 0 1.98 0 3 C-1 4 -2 5 -3 6 C-3 6.99 -3 7.98 -3 9 C-4.32 8.67 -5.64 8.34 -7 8 C-5.61918777 3.8575633 -3.40174442 2.67796901 0 0 Z " fill="#B5B5B5" transform="translate(990,161)"/>
</svg>
